<?xml version="1.0" encoding="utf-8"?>
<svg width="20px" height="20px" viewBox="0 0 20 20" version="1.1" xmlns:xlink="http://www.w3.org/1999/xlink" xmlns="http://www.w3.org/2000/svg">
  <defs>
    <path d="M20 0L20 0L20 20L0 20L0 0L20 0Z" id="path_1" />
    <clipPath id="clip_1">
      <use xlink:href="#path_1" />
    </clipPath>
  </defs>
  <g id="ep:close-bold" clip-path="url(#clip_1)">
    <path d="M20 0L20 0L20 20L0 20L0 0L20 0Z" id="epclose-bold" fill="none" stroke="none" />
    <path d="M3.8125 3.8125C4.04691 3.57816 4.36479 3.44652 4.69625 3.44652C5.02771 3.44652 5.34559 3.57816 5.58 3.8125L10 8.2325L14.42 3.8125C14.6557 3.5848 14.9715 3.45881 15.2992 3.46166C15.627 3.46451 15.9405 3.59597 16.1723 3.82773C16.404 4.05949 16.5355 4.373 16.5383 4.70075C16.5412 5.0285 16.4152 5.34425 16.1875 5.58L11.7675 10L16.1875 14.42C16.4152 14.6557 16.5412 14.9715 16.5383 15.2992C16.5355 15.627 16.404 15.9405 16.1723 16.1723C15.9405 16.404 15.627 16.5355 15.2992 16.5383C14.9715 16.5412 14.6557 16.4152 14.42 16.1875L10 11.7675L5.58 16.1875C5.34425 16.4152 5.0285 16.5412 4.70075 16.5383C4.373 16.5355 4.05949 16.404 3.82773 16.1723C3.59597 15.9405 3.46451 15.627 3.46166 15.2992C3.45881 14.9715 3.5848 14.6557 3.8125 14.42L8.2325 10L3.8125 5.58C3.57816 5.34559 3.44652 5.02771 3.44652 4.69625C3.44652 4.36479 3.57816 4.04691 3.8125 3.8125L3.8125 3.8125Z" id="Vector" fill="#FFFFFF" fill-rule="evenodd" stroke="none" />
  </g>
</svg>